<?xml version="1.0" encoding="UTF-8"?>
<svg version="1.1" xmlns="http://www.w3.org/2000/svg" viewBox="0 0 1704 502">
<path d="M0 0 C23.24315015 21.62370446 37.73368582 50.50004094 43.8125 81.5625 C44.03679687 82.65473877 44.03679687 82.65473877 44.265625 83.76904297 C54.19430341 134.62142282 46.785901 195.02904812 17.8125 238.5625 C12.36811145 246.40882468 6.36228619 253.62064914 -0.1875 260.5625 C-0.8371875 261.27664063 -1.486875 261.99078125 -2.15625 262.7265625 C-14.16335978 275.42639015 -29.14151031 284.89581257 -44.1875 293.5625 C-45.085896 294.09302979 -45.085896 294.09302979 -46.00244141 294.63427734 C-63.67581045 305.0276966 -83.31318671 311.89926383 -102.8125 318 C-103.45879364 318.20332947 -104.10508728 318.40665894 -104.77096558 318.6161499 C-119.93742302 323.35547141 -135.24234333 326.77065631 -150.91699219 329.31787109 C-153.18813745 329.68760377 -155.45736008 330.06776221 -157.7265625 330.44921875 C-167.84960238 332.13012713 -177.98693523 333.45044476 -188.1875 334.5625 C-187.38497803 334.54678955 -186.58245605 334.5310791 -185.75561523 334.51489258 C-146.55474462 333.86858953 -107.42724605 336.6860165 -68.35131836 339.55981445 C-52.40854467 340.73110809 -36.49286278 341.74095938 -20.5 341.75 C-19.31728516 341.76224609 -18.13457031 341.77449219 -16.91601562 341.78710938 C-10.62436544 341.79767174 -5.19580486 341.45412939 0.8125 339.5625 C1.6271875 339.31371094 2.441875 339.06492187 3.28125 338.80859375 C18.89891415 332.59156206 25.92111553 312.73290932 32.8125 298.5625 C34.1325 298.5625 35.4525 298.5625 36.8125 298.5625 C36.42120409 308.37160741 34.06024955 317.54636345 31.625 327 C31.2137155 328.61603028 30.80250176 330.23207858 30.39135742 331.84814453 C16.76791956 385.10367661 16.76791956 385.10367661 -0.01171875 395.44140625 C-13.7434278 402.51681109 -34.18630574 399.88265741 -48.6171875 395.484375 C-68.66700609 388.77370147 -88.09382277 380.28344327 -107.41552734 371.74243164 C-150.24914411 351.82556778 -150.24914411 351.82556778 -196.3125 344.375 C-197.70311646 344.3762085 -197.70311646 344.3762085 -199.12182617 344.37744141 C-209.11123001 344.46615879 -218.56289992 345.92045292 -228.1875 348.5625 C-229.30573815 346.32602369 -229.38146061 344.91358471 -229.50390625 342.4296875 C-229.54580078 341.62402344 -229.58769531 340.81835938 -229.63085938 339.98828125 C-229.67017578 339.14652344 -229.70949219 338.30476563 -229.75 337.4375 C-229.79318359 336.58800781 -229.83636719 335.73851562 -229.88085938 334.86328125 C-229.98704236 332.76321777 -230.08778497 330.66288052 -230.1875 328.5625 C-229.64166763 328.51904953 -229.09583527 328.47559906 -228.53346252 328.43083191 C-183.81961224 325.07958814 -183.81961224 325.07958814 -139.5625 318.1875 C-138.85329407 318.04637787 -138.14408813 317.90525574 -137.41339111 317.75985718 C-128.41592665 315.95037497 -119.83400763 313.61267996 -111.18603516 310.52880859 C-108.1875 309.5625 -108.1875 309.5625 -105.1875 309.5625 C-105.1875 308.9025 -105.1875 308.2425 -105.1875 307.5625 C-106.31019287 307.57821045 -107.43288574 307.5939209 -108.58959961 307.61010742 C-112.84082578 307.66529132 -117.09202192 307.69916424 -121.34350586 307.72729492 C-123.16745361 307.74218364 -124.99136689 307.76250135 -126.81518555 307.78881836 C-166.22071484 308.34229729 -204.68245975 295.88244531 -233.3828125 268.33203125 C-262.60326056 239.47785622 -277.04871369 199.0793094 -277.5859375 158.28515625 C-277.60095262 155.37437331 -277.59756638 152.46471392 -277.57861328 149.55395508 C-277.56252693 146.62989557 -277.5785754 143.7072214 -277.59765625 140.78320312 C-277.61616582 124.35126948 -275.94683913 108.10709044 -272 92.125 C-271.79133301 91.27486328 -271.58266602 90.42472656 -271.36767578 89.54882812 C-263.60264773 59.24249451 -249.05461274 31.96914963 -227.1875 9.5625 C-225.93259766 8.19738281 -225.93259766 8.19738281 -224.65234375 6.8046875 C-168.78953363 -52.34417027 -59.41487426 -53.70640469 0 0 Z " fill="#C19A62" transform="translate(328.1875,54.4375)"/>
<path d="M0 0 C-0.11945123 4.10781644 -0.24375962 8.21545618 -0.37231445 12.32299805 C-0.41527354 13.71651349 -0.45697055 15.1100685 -0.49731445 16.50366211 C-0.695932 23.33757687 -0.90702225 30.12988063 -1.76586914 36.91821289 C-2.21718006 40.9310682 -2.33247892 44.96708521 -2.5 49 C-2.73305176 54.61050531 -3.1021574 60.14633423 -3.76367188 65.72265625 C-4.18729541 69.80484664 -4.32972318 73.90074325 -4.5 78 C-4.73383958 83.62947141 -5.10496109 89.18445098 -5.76806641 94.77978516 C-6.16441252 98.57386052 -6.28590964 102.37719291 -6.4375 106.1875 C-6.92353904 117.15959523 -7.92320481 128.0721746 -9 139 C-9.99 139 -10.98 139 -12 139 C-12.28085449 138.21165771 -12.56170898 137.42331543 -12.85107422 136.61108398 C-32.4000483 76.96053027 -32.4000483 76.96053027 -75 34 C-97.12540253 23.55343513 -121.0205615 21.719471 -145 19 C-145.90928472 49.62536579 -146.27931269 80.24708867 -146.53222656 110.88415527 C-146.58354778 117.01393714 -146.63864073 123.14368519 -146.69335938 129.2734375 C-146.79913886 141.18226243 -146.90093998 153.09111741 -147 165 C-146.4288339 164.93107701 -145.85766781 164.86215403 -145.26919365 164.79114246 C-139.18096883 164.05666024 -133.09258578 163.32349964 -127.00411987 162.59101868 C-124.74899494 162.31955016 -122.49390707 162.04777353 -120.23886108 161.77565002 C-100.5900312 159.40492053 -80.92870639 157.15983046 -61.2578125 154.98046875 C-60.49948183 154.89584727 -59.74115116 154.8112258 -58.95984077 154.72404003 C-52.64316002 154.03443036 -46.33942137 153.52828511 -40 153 C-40 163.89 -40 174.78 -40 186 C-54.62131519 184.87528345 -54.62131519 184.87528345 -60.328125 184.16796875 C-61.6056665 184.01126709 -62.88320801 183.85456543 -64.19946289 183.69311523 C-65.54964644 183.52461302 -66.89982536 183.35607363 -68.25 183.1875 C-69.68803203 183.01019259 -71.12610261 182.83319756 -72.56420898 182.65649414 C-75.54734537 182.28973684 -78.5303136 181.92165155 -81.51318359 181.55273438 C-88.00046969 180.75182184 -94.49025823 179.97167734 -100.97976685 179.18902588 C-106.98702016 178.46354664 -112.99344979 177.73127219 -119 177 C-120.83594727 176.77715332 -120.83594727 176.77715332 -122.70898438 176.54980469 C-126.07716576 176.14011102 -129.44490051 175.72694591 -132.8125 175.3125 C-133.79677979 175.19318115 -134.78105957 175.0738623 -135.79516602 174.95092773 C-136.69420654 174.83950439 -137.59324707 174.72808105 -138.51953125 174.61328125 C-139.29401611 174.51829346 -140.06850098 174.42330566 -140.86645508 174.32543945 C-142.95758004 174.00647051 -144.95276206 173.52606349 -147 173 C-146.89174039 185.82339579 -146.77896568 198.64674354 -146.66066074 211.47005081 C-146.60584504 217.42646929 -146.55249856 223.38289288 -146.50268555 229.33935547 C-146.45442278 235.10363115 -146.40207122 240.86785737 -146.34705925 246.63207245 C-146.32691191 248.81490573 -146.30815915 250.99775242 -146.29092598 253.18061066 C-146.36213228 278.75247174 -146.36213228 278.75247174 -143.625 304.125 C-143.42656494 305.29832886 -143.42656494 305.29832886 -143.22412109 306.49536133 C-141.43403674 316.69119767 -139.38821003 326.62207935 -131 333.4375 C-114.62143657 341.96800178 -85.63039592 334.74253128 -69.0625 329.6875 C-43.18702765 320.69686978 -29.49724926 298.9662943 -17 276 C-16.5757373 275.23896973 -16.15147461 274.47793945 -15.71435547 273.69384766 C-6.26426175 256.72835345 1.33580973 238.88599441 9.08428955 221.10144043 C9.95190652 219.11036849 10.82107637 217.11998371 11.69091797 215.12988281 C14.47429355 208.75914248 17.24721922 202.38402249 20 196 C20.66 196 21.32 196 22 196 C22.18191489 205.43209138 21.61115526 214.79700771 21.01171875 224.203125 C20.9065867 225.88758001 20.8016775 227.57204895 20.69697571 229.25653076 C20.47635972 232.79355773 20.2533509 236.33042319 20.02856445 239.8671875 C19.74881573 244.27089041 19.47444049 248.67490638 19.20180798 253.07905483 C17.78088793 275.99177504 16.14760291 298.88208698 14.33406067 321.76698303 C13.81520135 328.32292088 13.31465502 334.88026516 12.8125 341.4375 C12.65242162 343.51953724 12.49228057 345.60156966 12.33203125 347.68359375 C12.26733643 348.52462646 12.2026416 349.36565918 12.13598633 350.23217773 C12.0686731 351.10724976 12.0686731 351.10724976 12 352 C10.24951008 351.88205919 8.4996282 351.75510056 6.75 351.625 C5.77546875 351.55539062 4.8009375 351.48578125 3.796875 351.4140625 C0.63015926 351.06872107 -2.43958139 350.59284669 -5.5741272 350.04281616 C-31.61801354 345.68533431 -58.34750733 346.65527505 -84.65678453 346.59528303 C-90.69719158 346.57946949 -96.73755101 346.55273924 -102.77792358 346.5272522 C-114.1738978 346.4807826 -125.56988131 346.44388632 -136.96590078 346.41057932 C-149.95782197 346.37213066 -162.94969496 346.32278148 -175.94157529 346.27259517 C-202.62768097 346.16974959 -229.31381772 346.08033778 -256 346 C-255.66625977 344.07958984 -255.66625977 344.07958984 -255 342 C-252.33984375 340.7265625 -252.33984375 340.7265625 -248.9375 339.625 C-241.2926416 336.85342483 -235.45152729 334.03202516 -231.1875 326.875 C-219.29707816 299.97141926 -224.83613273 261.60653777 -224.83274293 232.9188621 C-224.83202537 229.49934338 -224.82987806 226.0798285 -224.82724571 222.66031075 C-224.81803999 210.68393836 -224.81390525 198.70757698 -224.81469727 186.73120117 C-224.81529843 175.63964276 -224.8047266 164.54813291 -224.7889536 153.45658678 C-224.77581017 143.86601154 -224.77051613 134.27545207 -224.77115268 124.68486792 C-224.77140544 118.98635071 -224.76867753 113.2878769 -224.75797462 107.58936882 C-224.74817661 102.22846521 -224.74829312 96.86764552 -224.75549126 91.50673866 C-224.75652237 89.56034597 -224.75426414 87.6139477 -224.7481308 85.66756439 C-223.41061781 52.31478256 -223.41061781 52.31478256 -236 23 C-241.70494404 18.13739669 -249.10609592 15.70011243 -256 13 C-256 12.01 -256 11.02 -256 10 C-255.00905838 9.99668985 -254.01811676 9.99337971 -252.99714661 9.98996925 C-228.73471866 9.90848835 -204.47235072 9.81603102 -180.21000671 9.71247292 C-168.47628036 9.66263686 -156.74255999 9.61619424 -145.00878906 9.578125 C-134.76560918 9.54488283 -124.5224802 9.50488201 -114.27935696 9.45720994 C-108.87029238 9.43226011 -103.46126018 9.41039163 -98.05215454 9.39665604 C-68.85626771 9.32181415 -68.85626771 9.32181415 -39.69140625 8.09521484 C-38.4225206 8.01780375 -37.15363495 7.94039265 -35.84629822 7.86063576 C-23.94095325 7.0275821 -11.19875043 0 0 0 Z " fill="#C19A62" transform="translate(1288,14)"/>
<path d="M0 0 C0.1275864 7.76859389 -0.05680649 15.49165408 -0.4375 23.25 C-0.47673584 24.07661133 -0.51597168 24.90322266 -0.55639648 25.75488281 C-0.76050378 29.68345861 -1.04168192 33.57733593 -1.50390625 37.484375 C-2.07157463 42.31564029 -2.29818818 47.14156733 -2.5 52 C-2.73305176 57.61050531 -3.1021574 63.14633423 -3.76367188 68.72265625 C-4.18729541 72.80484664 -4.32972318 76.90074325 -4.5 81 C-4.73360684 86.62386831 -5.10505467 92.17256469 -5.76806641 97.76220703 C-6.17048254 101.64488735 -6.28535145 105.53845009 -6.4375 109.4375 C-6.85676271 119.0180605 -7.81658277 128.48670418 -9 138 C-9.99 138 -10.98 138 -12 138 C-12.27561768 137.19183838 -12.55123535 136.38367676 -12.83520508 135.55102539 C-23.00097311 105.90872715 -33.76140227 76.0865998 -53 51 C-53.50917969 50.30519531 -54.01835938 49.61039063 -54.54296875 48.89453125 C-74.7211283 23.03571681 -114.14489799 21.72141753 -144 18 C-144.72576573 25.33765592 -145.24780631 32.65615879 -145.54272461 40.0234375 C-145.58454581 41.05447601 -145.62636702 42.08551453 -145.66945553 43.14779663 C-146.13010499 55.30409348 -146.22862477 67.46136089 -146.31640625 79.625 C-146.33705056 82.07934864 -146.35804851 84.53369434 -146.37937927 86.98803711 C-146.43383004 93.35977747 -146.48356932 99.73154564 -146.53222656 106.10333252 C-146.58301441 112.64052725 -146.63839733 119.17768302 -146.69335938 125.71484375 C-146.79999488 138.47652881 -146.90179503 151.23824742 -147 164 C-146.42633572 163.93107701 -145.85267143 163.86215403 -145.26162338 163.79114246 C-139.1552183 163.05752806 -133.04877895 162.32419937 -126.94232178 161.59101868 C-124.67953672 161.31929875 -122.41675971 161.04751187 -120.1539917 160.77565002 C-101.11055165 158.48773715 -82.06413833 156.2257203 -63.015625 153.98046875 C-62.31144566 153.89584727 -61.60726631 153.8112258 -60.8817482 153.72404003 C-53.92059985 152.92087813 -47.01510047 152.5010786 -40 152 C-40 162.89 -40 173.78 -40 185 C-57.21732203 183.85217853 -57.21732203 183.85217853 -65.5859375 182.73046875 C-66.98595757 182.54896019 -66.98595757 182.54896019 -68.41426086 182.36378479 C-71.40172468 181.97578659 -74.38834375 181.58166123 -77.375 181.1875 C-81.55572017 180.64245091 -85.73684333 180.10052417 -89.91796875 179.55859375 C-90.94950577 179.42446075 -91.98104279 179.29032776 -93.0438385 179.15213013 C-99.35526999 178.33372466 -105.66911848 177.54153167 -111.98828125 176.78515625 C-112.74290649 176.69481613 -113.49753174 176.60447601 -114.27502441 176.51139832 C-117.71523226 176.10100628 -121.15592249 175.69533023 -124.59716797 175.29370117 C-125.80646973 175.15037354 -127.01577148 175.0070459 -128.26171875 174.859375 C-129.28225342 174.74045898 -130.30278809 174.62154297 -131.35424805 174.49902344 C-136.58898667 173.78250259 -141.79201255 172.88821331 -147 172 C-146.91461662 184.25958636 -146.81938304 196.51905625 -146.71247292 208.77847481 C-146.66308996 214.47452622 -146.61676921 220.17056403 -146.578125 225.86669922 C-148.33220495 274.22969782 -148.33220495 274.22969782 -139 321 C-138.73574219 321.7115625 -138.47148438 322.423125 -138.19921875 323.15625 C-135.81859598 328.77745619 -132.45567466 331.38979015 -127 334 C-114.45462611 338.1817913 -98.00254955 334.38827613 -85.29492188 332.35400391 C-83.46831305 332.07223978 -81.63331466 331.84499788 -79.796875 331.63671875 C-60.97886057 329.24117397 -45.57197237 317.32031581 -34 303 C-16.69143275 279.90388057 -4.64527198 252.58611972 6.9375 226.3125 C7.24851654 225.60778564 7.55953308 224.90307129 7.87997437 224.17700195 C12.12608062 214.53071882 16.14490271 204.80887452 20 195 C20.66 195 21.32 195 22 195 C22.14982637 205.77994315 21.70283228 216.41879908 20.94140625 227.16796875 C20.8312058 228.78010236 20.72151157 230.39227064 20.61228943 232.00447083 C20.3260249 236.21373704 20.03406624 240.42258662 19.74047852 244.63134766 C19.27394557 251.33175907 18.81532214 258.03271901 18.35769272 264.73374367 C18.24693648 266.35507592 18.13594702 267.97639226 18.02472305 269.59769249 C17.36773157 279.18946167 16.76650682 288.77921456 16.32936096 298.38388062 C15.95063449 306.53034152 15.33572165 314.65712986 14.69775391 322.78686523 C14.4965173 325.35697966 14.30076342 327.92747476 14.10546875 330.49804688 C13.97688124 332.161483 13.84798686 333.82489545 13.71875 335.48828125 C13.661427 336.24248856 13.604104 336.99669586 13.54504395 337.77375793 C13.19274607 342.21620545 12.67544015 346.59478226 12 351 C6.01505528 350.59022 0.10476062 350.06448946 -5.8125 349.0625 C-23.37087816 346.26558735 -41.05976699 345.69901107 -58.80639648 345.68115234 C-60.97725281 345.67182136 -63.14810564 345.66164818 -65.31895447 345.65071106 C-71.13144934 345.62375364 -76.94392048 345.60836515 -82.75646091 345.59528303 C-88.86094768 345.57950005 -94.96538699 345.55275946 -101.06983948 345.5272522 C-112.59341119 345.48072992 -124.1169921 345.44385855 -135.64060885 345.41057932 C-148.77514202 345.37216866 -161.9096272 345.32280907 -175.04411972 345.27259517 C-202.02937744 345.1696709 -229.01466608 345.08028385 -256 345 C-255.69580078 343.09326172 -255.69580078 343.09326172 -255 341 C-252.60276906 339.85817678 -250.37335556 338.96973999 -247.875 338.125 C-240.53466036 335.40162261 -234.92103394 332.59817985 -230.75 325.6875 C-223.20731418 308.789294 -224.85174565 287.19843122 -224.87060547 269.15551758 C-224.86924828 266.9660845 -224.86746657 264.77665166 -224.86529541 262.58721924 C-224.86075753 256.67167414 -224.86249596 250.75614659 -224.8656745 244.84060121 C-224.86821859 238.62572322 -224.86585472 232.41084667 -224.86428833 226.19596863 C-224.86235579 215.08904784 -224.86545166 203.98213475 -224.87054767 192.8752152 C-224.87560018 181.51232622 -224.87300694 170.14945334 -224.8678025 158.78656465 C-224.86324776 148.42347279 -224.86263256 138.060386 -224.86524117 127.69729346 C-224.8667919 121.52315124 -224.86703111 115.34901696 -224.86370468 109.17487526 C-224.8607918 103.36272523 -224.86286375 97.55059682 -224.86859894 91.7384491 C-224.86990866 89.61903608 -224.86956328 87.49962122 -224.86733627 85.38020897 C-224.85802462 75.60888224 -224.91126387 65.85776172 -225.42996216 56.09819031 C-225.46660315 55.39340036 -225.50324415 54.68861042 -225.54099548 53.9624632 C-226.21702121 42.7902667 -227.54223917 30.67250822 -235.64453125 22.30078125 C-240.60718039 18.15305134 -246.24058931 16.24816741 -252.33984375 14.2734375 C-253.21769531 13.85320313 -254.09554687 13.43296875 -255 13 C-255.66625977 10.92041016 -255.66625977 10.92041016 -256 9 C-254.96506314 8.99761165 -253.93012629 8.99522329 -252.86382771 8.99276257 C-227.55093957 8.93367468 -202.23814439 8.85761468 -176.92535877 8.76428509 C-164.68372782 8.71953276 -152.44212463 8.68007213 -140.20043945 8.65356445 C-129.51669115 8.6304163 -118.83303226 8.59683491 -108.14935511 8.55129844 C-102.50506772 8.52759025 -96.86086761 8.5087162 -91.21653175 8.50238609 C-48.5670198 9.36982858 -48.5670198 9.36982858 -7.08984375 0.98828125 C-4 0 -4 0 0 0 Z " fill="#C19A62" transform="translate(993,15)"/>
<path d="M0 0 C11.67432876 -0.27884719 23.34785738 -0.4916598 35.02484608 -0.62174606 C40.44802315 -0.68420465 45.86891163 -0.76881517 51.29077148 -0.90527344 C56.53000301 -1.03630009 61.76704351 -1.10753837 67.0077877 -1.13852692 C69.00025607 -1.16058889 70.99261311 -1.20367606 72.9841404 -1.26876068 C89.37323518 -1.78274358 89.37323518 -1.78274358 94.59017944 2.5645752 C97.45817333 5.43444799 99.73013277 8.63987534 102 12 C103.44340713 13.78302066 104.89942006 15.55601184 106.375 17.3125 C107.09816406 18.2096875 107.82132813 19.106875 108.56640625 20.03125 C113.04200563 25.49105021 117.71834734 30.77926309 122.35351562 36.10351562 C124.93637409 39.07855189 127.50056914 42.0694406 130.0625 45.0625 C130.55339111 45.63589111 131.04428223 46.20928223 131.55004883 46.80004883 C132.53885203 47.95530518 133.52754049 49.11065976 134.51611328 50.26611328 C137.00895524 53.17894046 139.50462766 56.08934061 142 59 C143.0000134 60.16665518 144.00001341 61.33332184 145 62.5 C145.495 63.0775 145.99 63.655 146.5 64.25 C152 70.66666667 157.5 77.08333333 163 83.5 C163.4952417 84.0777417 163.9904834 84.6554834 164.50073242 85.25073242 C165.49845195 86.41481977 166.49601114 87.57904456 167.4934082 88.7434082 C170.02698743 91.70069887 172.56350137 94.65538369 175.10546875 97.60546875 C179.69606553 102.93835322 184.25761398 108.28185945 188.6875 113.75 C192.23745321 118.12507747 195.95563821 122.30549192 199.75 126.46875 C202.86932876 129.97799486 205.79749133 133.63162123 208.75 137.28125 C210.93501569 139.92147729 213.19171391 142.4672972 215.5 145 C219.41891252 149.29991791 223.09170869 153.75919547 226.75 158.28125 C228.93501569 160.92147729 231.19171391 163.4672972 233.5 166 C236.52282421 169.31989486 239.42512161 172.69764112 242.25 176.1875 C247.45538238 182.61501564 252.892816 188.8311191 258.32275391 195.06835938 C261.06121581 198.22217459 263.78188222 201.39114961 266.5 204.5625 C266.97993408 205.12171143 267.45986816 205.68092285 267.9543457 206.25708008 C271.00051881 209.81282211 274.0094927 213.39730552 277 217 C277.02968644 213.7500201 277.04702345 210.50007617 277.0625 207.25 C277.07087891 206.34894531 277.07925781 205.44789063 277.08789062 204.51953125 C277.1046133 199.80373623 276.96564554 195.17220142 276.51953125 190.4765625 C276.05442801 185.37643664 275.87285522 180.31249498 275.7890625 175.1953125 C275.77595535 174.39835464 275.76284821 173.60139679 275.74934387 172.7802887 C275.72239097 171.1016683 275.69570012 169.42304368 275.66925049 167.74441528 C275.32610858 147.43207076 274.10103568 127.27739158 272.19207764 107.05535889 C272.01020844 105.10923709 271.83711787 103.16230072 271.66455078 101.21533203 C269.42801637 76.34465589 265.67382347 48.11738079 248 29 C247.38511719 28.30648437 246.77023437 27.61296875 246.13671875 26.8984375 C231.30166231 11.02284604 209.32621803 7.30959242 189 3 C189 2.01 189 1.02 189 0 C233.55 0 278.1 0 324 0 C324 0.99 324 1.98 324 3 C323.09378906 3.35191406 322.18757813 3.70382813 321.25390625 4.06640625 C310.45929222 8.44136622 301.68527095 13.31615565 295.4375 23.5625 C291.653872 32.61030609 290.39166528 42.25029728 289.375 51.9375 C289.25382812 53.01451172 289.13265625 54.09152344 289.0078125 55.20117188 C285.29690579 88.90185181 285.80584685 122.84243176 285.69667697 156.69622517 C285.67679567 162.59517277 285.65274267 168.49410231 285.62875474 174.39303443 C285.58147593 186.05188748 285.53810855 197.71075149 285.49731445 209.36962891 C285.45775441 220.67334846 285.41628163 231.97705841 285.37231445 243.28076172 C285.36959018 243.98132341 285.36686591 244.68188511 285.36405908 245.40367594 C285.35037625 248.91932319 285.33665664 252.43497029 285.32291877 255.95061731 C285.20958036 284.96705776 285.10270448 313.98352 285 343 C279.93465144 342.2507692 278.00339143 340.22961918 274.9375 336.3125 C273.96690024 335.11917767 272.99551926 333.9264904 272.0234375 332.734375 C271.52553711 332.11626953 271.02763672 331.49816406 270.51464844 330.86132812 C268.0878521 327.8790755 265.57444369 324.97303447 263.0625 322.0625 C262.05310133 320.88696263 261.04398822 319.71118 260.03515625 318.53515625 C259.53387207 317.95137207 259.03258789 317.36758789 258.51611328 316.76611328 C256.00899015 313.84557725 253.50462672 310.92267689 251 308 C250.00001341 306.83332184 249.0000134 305.66665518 248 304.5 C246 302.16666667 244 299.83333333 242 297.5 C241.25737915 296.63362915 241.25737915 296.63362915 240.49975586 295.74975586 C239.50051604 294.58394896 238.50132977 293.41809614 237.50219727 292.25219727 C234.99100539 289.32199602 232.47886607 286.39261709 229.96484375 283.46484375 C224.6672344 277.29340193 219.38984001 271.10598459 214.14208984 264.89208984 C209.29603358 259.15831236 204.40686219 253.46176847 199.51611328 247.76611328 C197.00899015 244.84557725 194.50462672 241.92267689 192 239 C191.00001341 237.83332184 190.0000134 236.66665518 189 235.5 C183 228.5 177 221.5 171 214.5 C170.5047583 213.9222583 170.0095166 213.3445166 169.49926758 212.74926758 C168.50154805 211.58518023 167.50398886 210.42095544 166.5065918 209.2565918 C163.97301257 206.29930113 161.43649863 203.34461631 158.89453125 200.39453125 C154.30393447 195.06164678 149.74238602 189.71814055 145.3125 184.25 C141.76254679 179.87492253 138.04436179 175.69450808 134.25 171.53125 C131.13067124 168.02200514 128.20250867 164.36837877 125.25 160.71875 C123.06498431 158.07852271 120.80828609 155.5327028 118.5 153 C114.58108748 148.70008209 110.90829131 144.24080453 107.25 139.71875 C105.06498431 137.07852271 102.80828609 134.5327028 100.5 132 C97.47717579 128.68010514 94.57487839 125.30235888 91.75 121.8125 C86.53481485 115.37288007 81.08668248 109.14544597 75.64648438 102.89648438 C72.06951948 98.77639788 68.52698206 94.62675574 64.98046875 90.48046875 C62.94696418 88.10323544 60.90733645 85.73144802 58.86328125 83.36328125 C53.10051795 76.6794095 47.45773837 69.93692173 42 63 C41.83748927 80.19133221 42.30412065 97.32354318 42.98828125 114.5 C43.06688598 116.51077935 43.14501711 118.5215768 43.22315377 120.53237438 C43.46823415 126.83442248 43.71833087 133.1362578 43.97143555 139.43798828 C44.22835718 145.83762733 44.47537594 152.23759549 44.71765739 158.63780403 C44.92949714 164.22198277 45.14848539 169.80585432 45.37256974 175.38955498 C45.50471326 178.68486985 45.63357781 181.98021289 45.75683022 185.27587891 C46.28892697 199.40832955 47.10333284 213.47503746 48.46166992 227.55078125 C48.58249845 228.80837753 48.70332697 230.06597382 48.82781696 231.36167908 C51.61363711 258.89962077 56.28446996 295.07389619 79.2421875 313.83203125 C95.0574301 325.42819156 113.05196771 329.56252512 132 333 C132 333.99 132 334.98 132 336 C87.45 336 42.9 336 -3 336 C-3 335.01 -3 334.02 -3 333 C-1.92621094 332.55269531 -0.85242187 332.10539062 0.25390625 331.64453125 C1.69029413 331.03430111 3.12648141 330.42359866 4.5625 329.8125 C5.26697266 329.52052734 5.97144531 329.22855469 6.69726562 328.92773438 C16.04316101 324.92235064 21.66010386 320.35665682 26 311 C37.76283774 279.8457059 34.31606698 239.25669566 34.26865101 206.3424859 C34.26347327 201.59907998 34.26831378 196.85568052 34.27142334 192.11227417 C34.27502746 184.16370219 34.27035649 176.21516779 34.26074219 168.26660156 C34.24984196 159.15112818 34.25340912 150.03574421 34.264395 140.92027295 C34.2735435 133.0042407 34.27471728 125.08823497 34.26951766 117.17219913 C34.26644196 112.48312283 34.26586466 107.79408822 34.27259064 103.1050148 C36.96672204 55.74391091 36.96672204 55.74391091 20 14 C17.71543087 12.49713886 15.52061763 11.16181796 13.125 9.875 C12.52558594 9.54113281 11.92617187 9.20726562 11.30859375 8.86328125 C7.58938763 6.80601973 3.81267585 4.87718903 0 3 C0 2.01 0 1.02 0 0 Z " fill="#C19A62" transform="translate(1329,24)"/>
<path d="M0 0 C0.88316895 0.01087646 1.76633789 0.02175293 2.67626953 0.03295898 C8.93414003 0.1863098 14.31241164 0.77065803 20.0625 3.375 C21.1453125 3.82746094 22.228125 4.27992187 23.34375 4.74609375 C32.45475019 8.87575362 39.11315095 14.23867295 46.0625 21.375 C47.06216797 22.37853516 47.06216797 22.37853516 48.08203125 23.40234375 C85.94185203 63.82603501 88.72100729 132.68940758 88.3850708 184.75805664 C88.37155908 187.59830253 88.37693182 190.43839414 88.38192749 193.27865791 C88.40919203 213.71736794 88.34097584 234.44281787 83.9375 254.5 C83.72722168 255.47735107 83.51694336 256.45470215 83.30029297 257.46166992 C78.49608122 278.50683353 69.68654036 300.38327661 51.26171875 313.125 C39.62451102 319.73939871 26.59386807 320.08064074 13.875 316.8125 C0.96168459 312.59112107 -8.54118825 305.8929906 -17.9375 296.375 C-19.04931641 295.26125 -19.04931641 295.26125 -20.18359375 294.125 C-40.9721318 272.0802345 -49.28669924 239.24187674 -54.9375 210.375 C-55.08525879 209.63282227 -55.23301758 208.89064453 -55.38525391 208.12597656 C-63.05152867 168.47034612 -62.99708754 126.41829995 -58.9375 86.375 C-58.80194758 84.81913502 -58.66772851 83.263153 -58.53515625 81.70703125 C-56.24431516 56.94681027 -49.21984727 27.71356227 -29.9375 10.375 C-20.51802279 3.28167417 -11.78568507 -0.19797417 0 0 Z " fill="#1b1715" transform="translate(198.9375,30.625)"/>
<path d="M0 0 C47.85 0 95.7 0 145 0 C144.67 1.32 144.34 2.64 144 4 C141.55859375 5.2734375 141.55859375 5.2734375 138.4375 6.375 C128.9585205 10.10812123 124.02231914 13.94097102 119.2265625 23.0234375 C116.27778033 30.17939933 115.37844027 37.62290742 114.4375 45.25 C114.31181641 46.19101563 114.18613281 47.13203125 114.05664062 48.1015625 C111.49763413 68.5200227 111.836167 89.15269395 111.83274293 109.69154286 C111.83202384 112.12270214 111.82987379 114.55385604 111.82724571 116.98501396 C111.81804985 125.50734684 111.81390406 134.02966427 111.81469727 142.55200195 C111.81529845 150.43301832 111.80472361 158.31396634 111.7889536 166.19496542 C111.77579397 173.02024082 111.77051678 179.84549407 111.77115268 186.67078203 C111.77140493 190.72156128 111.76870615 194.7722794 111.75797462 198.82304573 C111.46106563 254.29893293 111.46106563 254.29893293 137 302 C157.30291389 319.71043277 181.99790496 322.50154591 208 321 C216.72295638 319.91500762 225.26166804 317.16904463 233 313 C234.19302734 312.37158203 234.19302734 312.37158203 235.41015625 311.73046875 C255.32504268 300.55720171 266.38433852 281.90201955 272.98046875 260.6796875 C279.57399549 236.8823611 280.49994348 212.44672976 280.32661438 187.90771103 C280.31228259 185.71676369 280.30317548 183.52584967 280.29553223 181.33486938 C280.21538213 159.51278612 279.92011928 137.74859701 278 116 C277.93447937 115.23721741 277.86895874 114.47443481 277.80145264 113.6885376 C275.50810502 85.96535443 275.50810502 85.96535443 269 59 C268.60941406 57.80503906 268.21882813 56.61007813 267.81640625 55.37890625 C260.64976351 35.42979253 249.84037429 21.54368852 230.625 12.3125 C220.12239324 7.76881906 209.18468231 5.21346037 198 3 C198 2.01 198 1.02 198 0 C240.24 0 282.48 0 326 0 C326 0.99 326 1.98 326 3 C325.13117188 3.44730469 324.26234375 3.89460938 323.3671875 4.35546875 C310.11662714 11.30682536 302.08447204 18.50458103 297.25 33.25 C290.22027319 56.46529915 290.94946234 82.03268392 290.5 106.0625 C290.47976776 107.06994263 290.45953552 108.07738525 290.43869019 109.11535645 C290.14431021 123.80484675 289.95345894 138.49396732 289.81201553 153.18559074 C289.78508504 155.95654563 289.75707906 158.72748764 289.72872925 161.49842834 C289.70976442 163.36019884 289.69081304 165.22196947 289.671875 167.08374023 C289.66244432 168.00846288 289.65301365 168.93318552 289.6432972 169.88593006 C289.59708015 174.49660747 289.55485849 179.10726236 289.52099609 183.7180481 C289.16554686 231.83604577 289.16554686 231.83604577 284.8125 252.6875 C284.49104004 254.24500977 284.49104004 254.24500977 284.16308594 255.83398438 C277.9208643 284.56409641 264.27161339 310.08908708 239.375 326.625 C232.30539769 331.16119952 224.91387875 334.21876465 217 337 C215.92069214 337.38103882 215.92069214 337.38103882 214.81958008 337.76977539 C200.04393518 342.86314023 185.29128587 343.29095667 169.8125 343.3125 C168.60093735 343.31774185 168.60093735 343.31774185 167.36489868 343.3230896 C152.82547404 343.35790685 138.57211448 342.554253 124.5625 338.3125 C123.67981445 338.05049805 122.79712891 337.78849609 121.88769531 337.51855469 C103.01294473 331.76165381 84.75326068 323.3647185 70 310 C69.09894531 309.19175781 68.19789063 308.38351562 67.26953125 307.55078125 C49.87540483 291.11633077 41.22492663 269.17604261 37 246 C36.75604288 244.78451918 36.75604288 244.78451918 36.50715733 243.54448318 C34.9618002 235.2962255 34.69962065 227.25345849 34.69702148 218.88183594 C34.68933996 217.40177965 34.68078982 215.92172765 34.67144775 214.44168091 C34.65329749 211.27599377 34.64117688 208.11036414 34.63390923 204.94463348 C34.62229988 199.91307896 34.59678456 194.88164968 34.56959534 189.85015869 C34.5280681 181.86807886 34.49561407 173.88599257 34.46712118 165.90385652 C34.41618742 151.66957404 34.3530958 137.43534933 34.28178078 123.20115495 C34.25725205 118.22606005 34.23777174 113.25097909 34.22227097 108.27584833 C34.32413881 75.65943729 34.32413881 75.65943729 31.6875 43.1875 C31.58244141 42.24326172 31.47738281 41.29902344 31.36914062 40.32617188 C30.12084376 30.38754605 27.35688525 20.18322487 20 13 C13.91229866 8.46055488 7.10425612 5.56962455 0 3 C0 2.01 0 1.02 0 0 Z " fill="#C19A62" transform="translate(396,24)"/>
<path d="M0 0 C3.15274686 1.45061451 5.31816325 2.89865023 7.66796875 5.46875 C9.35543001 10.2147348 9.72138414 14.64283461 7.82421875 19.39453125 C3.8720224 26.27081882 -2.36807925 31.5816505 -9.33203125 35.28125 C-7.18410896 40.03207319 -3.81550634 43.46601537 -0.33203125 47.28125 C0.13976563 47.83039063 0.6115625 48.37953125 1.09765625 48.9453125 C3.4798471 51.62916015 3.4798471 51.62916015 6.85546875 52.40625 C9.47528176 50.78015916 9.86656272 49.21973877 10.66796875 46.28125 C10.83595137 43.57238059 10.83595137 43.57238059 10.66796875 41.28125 C7.69796875 40.62125 4.72796875 39.96125 1.66796875 39.28125 C1.66796875 37.63125 1.66796875 35.98125 1.66796875 34.28125 C8.92796875 34.28125 16.18796875 34.28125 23.66796875 34.28125 C22.79233484 40.41068737 22.48649701 42.24583162 19.29296875 46.96875 C18.68710938 47.88011719 18.08125 48.79148437 17.45703125 49.73046875 C15.90129314 51.94858444 14.31190574 54.1279951 12.66796875 56.28125 C14.15745709 60.49385199 16.55493068 61.58584703 20.48046875 63.46875 C21.51816406 63.97792969 22.55585937 64.48710937 23.625 65.01171875 C26.34903362 66.14818977 28.76210834 66.83543408 31.66796875 67.28125 C31.66796875 68.60125 31.66796875 69.92125 31.66796875 71.28125 C27.44101202 73.39472836 22.25519117 72.78849094 17.66796875 72.28125 C13.38694074 70.72239741 9.46647895 68.59741547 5.7890625 65.90625 C3.48011942 64.97663022 3.48011942 64.97663022 0.671875 66.6171875 C-0.47885596 67.29076973 -1.62580758 67.97083703 -2.76953125 68.65625 C-9.60453664 72.38967143 -15.49447544 73.75865023 -23.33203125 72.28125 C-28.11876452 70.55772497 -30.63479218 68.39247476 -33.33203125 64.09375 C-34.98197559 57.80333721 -35.30798082 52.68045935 -32.83203125 46.59375 C-30.0967361 42.43134434 -26.1914849 39.36319236 -22.33203125 36.28125 C-22.54859375 35.53101563 -22.76515625 34.78078125 -22.98828125 34.0078125 C-25.43135782 25.02724401 -27.4870061 16.60012133 -22.6796875 8.10546875 C-16.89419811 0.27409615 -9.54767098 -2.94266576 0 0 Z " fill="#EEEEEE" transform="translate(1110.33203125,406.71875)"/>
<path d="M0 0 C4.80139866 -0.07484195 9.60244862 -0.12892454 14.40429688 -0.16479492 C16.03358891 -0.17976766 17.66284145 -0.20015321 19.29199219 -0.22631836 C41.64146446 -0.57595734 41.64146446 -0.57595734 51 7 C55.00314864 11.43592146 56.38450376 14.76329526 56.2734375 20.81640625 C55.45725451 27.3342104 51.73171228 31.73889001 46.87890625 35.87109375 C44.62055124 37.22798481 42.58955625 37.61356536 40 38 C44.05664256 44.92348772 48.28418953 51.67492634 53.0625 58.125 C53.83722656 59.17945313 54.61195312 60.23390625 55.41015625 61.3203125 C58.50441667 64.52191528 60.84964403 65.52680143 65 67 C65 68.32 65 69.64 65 71 C62.72885524 72.13557238 61.27706381 72.23084318 58.75 72.3125 C57.62851563 72.36857422 57.62851563 72.36857422 56.484375 72.42578125 C52.22218579 71.69531172 49.27369191 69.58634122 46.57275391 66.22241211 C45.12547024 64.12270619 43.77184742 61.98562733 42.4375 59.8125 C41.9520874 59.05453125 41.4666748 58.2965625 40.96655273 57.515625 C38.48736818 53.6032864 36.3939464 49.7618997 34.5625 45.5 C33.2940625 43.7675 33.2940625 43.7675 32 42 C28.04 41.67 24.08 41.34 20 41 C20.33 49.25 20.66 57.5 21 66 C23.64 66.33 26.28 66.66 29 67 C29 68.32 29 69.64 29 71 C19.43 71 9.86 71 0 71 C0 69.68 0 68.36 0 67 C0.63808594 66.87882812 1.27617188 66.75765625 1.93359375 66.6328125 C2.75988281 66.46523438 3.58617187 66.29765625 4.4375 66.125 C5.26121094 65.96257812 6.08492187 65.80015625 6.93359375 65.6328125 C7.95646484 65.31957031 7.95646484 65.31957031 9 65 C10.30760893 62.38478215 10.11997548 60.46886599 10.11352539 57.54052734 C10.11341209 55.82897964 10.11341209 55.82897964 10.11329651 54.08285522 C10.10813522 52.84637238 10.10297394 51.60988953 10.09765625 50.3359375 C10.0962413 49.07359283 10.09482635 47.81124817 10.09336853 46.51065063 C10.08871078 43.15361701 10.07972408 39.796651 10.06866455 36.43963623 C10.0584377 33.01445094 10.05386818 29.58925866 10.04882812 26.1640625 C10.03778238 19.44268957 10.02103194 12.72134869 10 6 C6.7 5.67 3.4 5.34 0 5 C0 3.35 0 1.7 0 0 Z " fill="#EDEDED" transform="translate(1447,407)"/>
<path d="M0 0 C4.80139866 -0.07484195 9.60244862 -0.12892454 14.40429688 -0.16479492 C16.03358891 -0.17976766 17.66284145 -0.20015321 19.29199219 -0.22631836 C41.64146446 -0.57595734 41.64146446 -0.57595734 51 7 C55.00314864 11.43592146 56.38450376 14.76329526 56.2734375 20.81640625 C55.45725451 27.3342104 51.73171228 31.73889001 46.87890625 35.87109375 C44.62055124 37.22798481 42.58955625 37.61356536 40 38 C44.05664256 44.92348772 48.28418953 51.67492634 53.0625 58.125 C53.83722656 59.17945313 54.61195313 60.23390625 55.41015625 61.3203125 C58.50441667 64.52191528 60.84964403 65.52680143 65 67 C65 68.32 65 69.64 65 71 C62.72885524 72.13557238 61.27706381 72.23084318 58.75 72.3125 C57.62851562 72.36857422 57.62851562 72.36857422 56.484375 72.42578125 C52.22218579 71.69531172 49.27369191 69.58634122 46.57275391 66.22241211 C45.12547024 64.12270619 43.77184742 61.98562733 42.4375 59.8125 C41.9520874 59.05453125 41.4666748 58.2965625 40.96655273 57.515625 C38.48736818 53.6032864 36.3939464 49.7618997 34.5625 45.5 C33.2940625 43.7675 33.2940625 43.7675 32 42 C28.04 41.67 24.08 41.34 20 41 C20.33 49.25 20.66 57.5 21 66 C23.64 66.33 26.28 66.66 29 67 C29 68.32 29 69.64 29 71 C19.43 71 9.86 71 0 71 C0 69.68 0 68.36 0 67 C0.63808594 66.87882812 1.27617188 66.75765625 1.93359375 66.6328125 C2.75988281 66.46523438 3.58617187 66.29765625 4.4375 66.125 C5.26121094 65.96257812 6.08492187 65.80015625 6.93359375 65.6328125 C7.95646484 65.31957031 7.95646484 65.31957031 9 65 C10.30760893 62.38478215 10.11997548 60.46886599 10.11352539 57.54052734 C10.11341209 55.82897964 10.11341209 55.82897964 10.11329651 54.08285522 C10.10813522 52.84637238 10.10297394 51.60988953 10.09765625 50.3359375 C10.0962413 49.07359283 10.09482635 47.81124817 10.09336853 46.51065063 C10.08871078 43.15361701 10.07972408 39.796651 10.06866455 36.43963623 C10.0584377 33.01445094 10.05386818 29.58925866 10.04882812 26.1640625 C10.03778238 19.44268957 10.02103194 12.72134869 10 6 C6.7 5.67 3.4 5.34 0 5 C0 3.35 0 1.7 0 0 Z " fill="#EDEDED" transform="translate(704,407)"/>
<path d="M0 0 C4.80139866 -0.07484195 9.60244862 -0.12892454 14.40429688 -0.16479492 C16.03358891 -0.17976766 17.66284145 -0.20015321 19.29199219 -0.22631836 C41.64146446 -0.57595734 41.64146446 -0.57595734 51 7 C55.00314864 11.43592146 56.38450376 14.76329526 56.2734375 20.81640625 C55.45725451 27.3342104 51.73171228 31.73889001 46.87890625 35.87109375 C44.62055124 37.22798481 42.58955625 37.61356536 40 38 C44.05664256 44.92348772 48.28418953 51.67492634 53.0625 58.125 C53.83722656 59.17945313 54.61195313 60.23390625 55.41015625 61.3203125 C58.50441667 64.52191528 60.84964403 65.52680143 65 67 C65 68.32 65 69.64 65 71 C62.72885524 72.13557238 61.27706381 72.23084318 58.75 72.3125 C57.62851562 72.36857422 57.62851562 72.36857422 56.484375 72.42578125 C52.22218579 71.69531172 49.27369191 69.58634122 46.57275391 66.22241211 C45.12547024 64.12270619 43.77184742 61.98562733 42.4375 59.8125 C41.9520874 59.05453125 41.4666748 58.2965625 40.96655273 57.515625 C38.48736818 53.6032864 36.3939464 49.7618997 34.5625 45.5 C33.2940625 43.7675 33.2940625 43.7675 32 42 C28.04 41.67 24.08 41.34 20 41 C20.33 49.25 20.66 57.5 21 66 C23.64 66.33 26.28 66.66 29 67 C29 68.32 29 69.64 29 71 C19.43 71 9.86 71 0 71 C0 69.68 0 68.36 0 67 C0.63808594 66.87882812 1.27617187 66.75765625 1.93359375 66.6328125 C2.75988281 66.46523438 3.58617187 66.29765625 4.4375 66.125 C5.26121094 65.96257812 6.08492188 65.80015625 6.93359375 65.6328125 C7.95646484 65.31957031 7.95646484 65.31957031 9 65 C10.30760893 62.38478215 10.11997548 60.46886599 10.11352539 57.54052734 C10.11341209 55.82897964 10.11341209 55.82897964 10.11329651 54.08285522 C10.10813522 52.84637238 10.10297394 51.60988953 10.09765625 50.3359375 C10.0962413 49.07359283 10.09482635 47.81124817 10.09336853 46.51065063 C10.08871078 43.15361701 10.07972408 39.796651 10.06866455 36.43963623 C10.0584377 33.01445094 10.05386818 29.58925866 10.04882812 26.1640625 C10.03778238 19.44268957 10.02103194 12.72134869 10 6 C6.7 5.67 3.4 5.34 0 5 C0 3.35 0 1.7 0 0 Z " fill="#EDEDED" transform="translate(408,407)"/>
<path d="M0 0 C5.68727967 -0.97034155 11.40058155 -1.77383768 17 0 C21.70316439 3.4917627 24.56371699 8.8789126 27.58496094 13.79394531 C29.78223572 17.21951034 32.34537731 20.30667211 34.9375 23.4375 C43.55686834 34.08554039 51.79434515 45.03173817 60 56 C60.10571466 44.26079407 60.08346243 32.54255732 59.5625 20.8125 C59.52326416 19.88743652 59.48402832 18.96237305 59.44360352 18.00927734 C59.38064087 16.71497803 59.38064087 16.71497803 59.31640625 15.39453125 C59.26141968 14.26301636 59.26141968 14.26301636 59.20532227 13.10864258 C58.99607579 10.95969869 58.69289869 9.04683223 58 7 C55.43106162 5.71553081 53.23423663 5.67022856 50.375 5.4375 C48.87066406 5.31181641 48.87066406 5.31181641 47.3359375 5.18359375 C46.56507813 5.12300781 45.79421875 5.06242187 45 5 C44.505 2.525 44.505 2.525 44 0 C54.89 0 65.78 0 77 0 C77 1.65 77 3.3 77 5 C73.97265625 5.24414062 73.97265625 5.24414062 70.9453125 5.48828125 C68.60480784 5.87393036 68.60480784 5.87393036 67 9 C66.69127985 11.75554109 66.69127985 11.75554109 66.72875977 14.90844727 C66.71857315 16.12303116 66.70838654 17.33761505 66.69789124 18.58900452 C66.69575119 19.90154709 66.69361115 21.21408966 66.69140625 22.56640625 C66.68030972 23.9249734 66.66791689 25.28353054 66.65428162 26.64207458 C66.59885131 32.41192562 66.56812605 38.18184748 66.54370117 43.9519043 C66.52785396 47.48276599 66.49767056 51.01327783 66.45893669 54.54395866 C66.44158411 56.54588678 66.44123168 58.5479387 66.4410553 60.54994202 C66.42771652 61.76137375 66.41437775 62.97280548 66.40063477 64.22094727 C66.39556412 65.29111588 66.39049347 66.36128448 66.38526917 67.46388245 C66.19456093 68.71926064 66.19456093 68.71926064 66 70 C63 72 63 72 60 72 C58.08063684 69.70895065 56.34876632 67.43250033 54.625 65 C53.54712678 63.51875091 52.46630674 62.03964244 51.3828125 60.5625 C50.8249707 59.80195313 50.26712891 59.04140625 49.69238281 58.2578125 C47.06507925 54.7527197 44.28865828 51.37713701 41.5 48 C35.57788237 40.79711222 29.95440512 33.39881391 24.41064453 25.90234375 C21.954957 22.59069313 19.47678606 19.29588492 17 16 C16.95015938 21.22866463 16.91407394 26.45718765 16.89013672 31.68603516 C16.88014622 33.46079928 16.86654919 35.23554723 16.84912109 37.01025391 C16.65031173 50.6322849 16.65031173 50.6322849 19 64 C20.81298005 65.81298005 23.61181698 65.67555005 26.0625 66.0625 C27.16722656 66.23910156 28.27195312 66.41570312 29.41015625 66.59765625 C30.26480469 66.73042969 31.11945312 66.86320312 32 67 C32 68.32 32 69.64 32 71 C21.44 71 10.88 71 0 71 C0 69.68 0 68.36 0 67 C0.95712891 66.83564453 0.95712891 66.83564453 1.93359375 66.66796875 C2.75988281 66.50941406 3.58617187 66.35085938 4.4375 66.1875 C5.26121094 66.03667969 6.08492187 65.88585937 6.93359375 65.73046875 C7.95646484 65.36888672 7.95646484 65.36888672 9 65 C10.00130279 61.99609163 10.13233868 59.98108328 10.14526367 56.84179688 C10.15164352 55.79060669 10.15802338 54.7394165 10.16459656 53.65637207 C10.16570938 52.52195679 10.1668222 51.3875415 10.16796875 50.21875 C10.17129715 49.05371948 10.17462555 47.88868896 10.17805481 46.68835449 C10.18312018 44.22371821 10.18546326 41.75907507 10.18530273 39.29443359 C10.18749121 35.51518531 10.20565678 31.73622794 10.22460938 27.95703125 C10.22754291 25.56510517 10.22952797 23.1731777 10.23046875 20.78125 C10.23765427 19.64683472 10.24483978 18.51241943 10.25224304 17.34362793 C10.24916641 16.29243774 10.24608978 15.24124756 10.24291992 14.15820312 C10.24434494 13.23237427 10.24576996 12.30654541 10.24723816 11.35266113 C10.1558967 8.73041773 10.1558967 8.73041773 8 6 C6.03638136 5.42251197 6.03638136 5.42251197 3.875 5.3125 C2.59625 5.209375 1.3175 5.10625 0 5 C0 3.35 0 1.7 0 0 Z " fill="#EEEEEE" transform="translate(843,407)"/>
<path d="M0 0 C3.3 0 6.6 0 10 0 C10.41342651 1.18082153 10.41342651 1.18082153 10.83520508 2.38549805 C16.07838708 17.33251183 21.39432205 32.24706541 27 47.0625 C27.45608643 48.27317139 27.91217285 49.48384277 28.38208008 50.73120117 C28.81286865 51.86275635 29.24365723 52.99431152 29.6875 54.16015625 C30.06261719 55.14636963 30.43773437 56.13258301 30.82421875 57.14868164 C33.02847674 63.30245743 33.02847674 63.30245743 37.6875 67.375 C38.450625 67.58125 39.21375 67.7875 40 68 C40 69.32 40 70.64 40 72 C30.76 72 21.52 72 12 72 C12 70.68 12 69.36 12 68 C16.95 67.505 16.95 67.505 22 67 C21.731875 65.39125 21.46375 63.7825 21.1875 62.125 C21.03667969 61.22007812 20.88585938 60.31515625 20.73046875 59.3828125 C19.75299973 54.85613778 18.33071019 50.43570063 17 46 C8.42 46 -0.16 46 -9 46 C-9.99 49.3 -10.98 52.6 -12 56 C-12.391875 57.11375 -12.78375 58.2275 -13.1875 59.375 C-14.19712249 62.17887918 -14.19712249 62.17887918 -14 66 C-9.545 66.99 -9.545 66.99 -5 68 C-5 69.32 -5 70.64 -5 72 C-12.92 72 -20.84 72 -29 72 C-29 70.68 -29 69.36 -29 68 C-28.05125 67.773125 -27.1025 67.54625 -26.125 67.3125 C-22.8866512 66.35906697 -22.8866512 66.35906697 -21.99291992 63.90112305 C-21.66525635 62.94375244 -21.33759277 61.98638184 -21 61 C-20.53762939 59.81639893 -20.07525879 58.63279785 -19.59887695 57.41333008 C-19.06176404 56.03216009 -18.52491383 54.65088793 -17.98828125 53.26953125 C-17.69696823 52.52023849 -17.40565521 51.77094574 -17.10551453 50.99894714 C-16.17428183 48.60355326 -15.24338283 46.20802986 -14.3125 43.8125 C-13.4035417 41.47410206 -12.49451613 39.13573088 -11.58493042 36.7975769 C-10.97815149 35.23546385 -10.37295014 33.67273711 -9.76931763 32.10940552 C-8.20966219 28.07602637 -6.62179797 24.0576583 -4.98193359 20.05615234 C-4.65686325 19.25183273 -4.33179291 18.44751312 -3.99687195 17.61882019 C-3.38007764 16.09471716 -2.75406029 14.57430009 -2.11701965 13.05854797 C-0.27524156 8.47222476 0.31507065 4.94284773 0 0 Z " fill="#F0F0F0" transform="translate(1577,406)"/>
<path d="M0 0 C3.3 0 6.6 0 10 0 C10.41342651 1.18082153 10.41342651 1.18082153 10.83520508 2.38549805 C16.07838708 17.33251183 21.39432205 32.24706541 27 47.0625 C27.45608643 48.27317139 27.91217285 49.48384277 28.38208008 50.73120117 C28.81286865 51.86275635 29.24365723 52.99431152 29.6875 54.16015625 C30.06261719 55.14636963 30.43773437 56.13258301 30.82421875 57.14868164 C33.02847674 63.30245743 33.02847674 63.30245743 37.6875 67.375 C38.450625 67.58125 39.21375 67.7875 40 68 C40 69.32 40 70.64 40 72 C30.76 72 21.52 72 12 72 C12 70.68 12 69.36 12 68 C16.95 67.505 16.95 67.505 22 67 C21.731875 65.39125 21.46375 63.7825 21.1875 62.125 C21.03667969 61.22007812 20.88585937 60.31515625 20.73046875 59.3828125 C19.75299973 54.85613778 18.33071019 50.43570063 17 46 C8.42 46 -0.16 46 -9 46 C-9.99 49.3 -10.98 52.6 -12 56 C-12.391875 57.11375 -12.78375 58.2275 -13.1875 59.375 C-14.19712249 62.17887918 -14.19712249 62.17887918 -14 66 C-9.545 66.99 -9.545 66.99 -5 68 C-5 69.32 -5 70.64 -5 72 C-12.92 72 -20.84 72 -29 72 C-29 70.68 -29 69.36 -29 68 C-28.05125 67.773125 -27.1025 67.54625 -26.125 67.3125 C-22.8866512 66.35906697 -22.8866512 66.35906697 -21.99291992 63.90112305 C-21.66525635 62.94375244 -21.33759277 61.98638184 -21 61 C-20.53762939 59.81639893 -20.07525879 58.63279785 -19.59887695 57.41333008 C-19.06176404 56.03216009 -18.52491383 54.65088793 -17.98828125 53.26953125 C-17.69696823 52.52023849 -17.40565521 51.77094574 -17.10551453 50.99894714 C-16.17428183 48.60355326 -15.24338283 46.20802986 -14.3125 43.8125 C-13.4035417 41.47410206 -12.49451613 39.13573088 -11.58493042 36.7975769 C-10.97815149 35.23546385 -10.37295014 33.67273711 -9.76931763 32.10940552 C-8.20966219 28.07602637 -6.62179797 24.0576583 -4.98193359 20.05615234 C-4.65686325 19.25183273 -4.33179291 18.44751312 -3.99687195 17.61882019 C-3.38007764 16.09471716 -2.75406029 14.57430009 -2.11701965 13.05854797 C-0.27524156 8.47222476 0.31507065 4.94284773 0 0 Z " fill="#F0F0F0" transform="translate(800,406)"/>
<path d="M0 0 C8.71411605 9.11021223 11.28301626 18.8184009 11.05859375 31.1484375 C10.10403678 42.67561914 6.2335314 52.64287084 -2.1640625 60.71484375 C-9.6029121 66.77557978 -17.40521381 68.5406346 -26.90234375 68.28515625 C-35.08769484 67.2822836 -42.33979061 63.94840396 -47.85546875 57.76171875 C-55.89631163 46.88293132 -56.53219477 33.91644657 -55.25 20.875 C-53.11332959 11.57303022 -47.76770385 3.65934623 -39.875 -1.75390625 C-27.16541878 -9.09118093 -12.09343352 -7.90724499 0 0 Z M-40.25 7.875 C-47.23927916 18.14121988 -46.77356599 29.83689669 -44.7890625 41.609375 C-42.93431951 49.36557296 -38.26955018 54.93840301 -31.88671875 59.6015625 C-26.39819975 62.2523139 -19.6662217 61.70418003 -13.8359375 60.2890625 C-6.52398937 57.21183337 -2.77960981 49.87699937 0.14575195 42.8449707 C1.27911879 39.14996586 1.23594459 35.46211877 1.1875 31.625 C1.17992676 30.78743164 1.17235352 29.94986328 1.16455078 29.08691406 C0.91815922 19.78877989 -1.21638559 12.10907008 -7.73828125 5.2421875 C-12.96168309 0.51818067 -18.12267964 -0.44050555 -24.9453125 -0.33984375 C-31.18887882 0.24218362 -35.92299019 3.54799019 -40.25 7.875 Z " fill="#EEEEEE" transform="translate(688.25,412.125)"/>
<path d="M0 0 C0.33 7.26 0.66 14.52 1 22 C-0.32 22 -1.64 22 -3 22 C-3.64633275 20.22934889 -4.2920483 18.45847247 -4.9375 16.6875 C-5.47697266 15.20830078 -5.47697266 15.20830078 -6.02734375 13.69921875 C-6.70885965 11.8079437 -7.3642811 9.90715671 -8 8 C-16.25 7.34 -24.5 6.68 -33 6 C-33 14.58 -33 23.16 -33 32 C-25.08 32 -17.16 32 -9 32 C-9 33.98 -9 35.96 -9 38 C-16.92 38 -24.84 38 -33 38 C-32.855625 41.898125 -32.71125 45.79625 -32.5625 49.8125 C-32.51939697 51.03815674 -32.47629395 52.26381348 -32.43188477 53.52661133 C-32.3747229 54.97716919 -32.3747229 54.97716919 -32.31640625 56.45703125 C-32.27974854 57.44678955 -32.24309082 58.43654785 -32.20532227 59.45629883 C-32.09209669 62.1218351 -32.09209669 62.1218351 -31 65 C-27.25842335 66.87078832 -22.74207312 66.18475528 -18.625 66.1875 C-17.6659375 66.19974609 -16.706875 66.21199219 -15.71875 66.22460938 C-14.79320312 66.22654297 -13.86765625 66.22847656 -12.9140625 66.23046875 C-12.0679541 66.23457764 -11.2218457 66.23868652 -10.35009766 66.24291992 C-7.74241219 65.97337421 -6.18377032 65.44330329 -4 64 C-2.74973882 61.60844535 -1.71945037 59.37281855 -0.75 56.875 C-0.481875 56.21628906 -0.21375 55.55757813 0.0625 54.87890625 C0.7204713 53.25747697 1.36187627 51.62934259 2 50 C3.32 50 4.64 50 6 50 C5.85758352 52.35441716 5.71115192 54.70847484 5.5625 57.0625 C5.48128906 58.37347656 5.40007812 59.68445313 5.31640625 61.03515625 C5.02356706 64.70468439 4.52059949 68.35580356 4 72 C-14.81 72 -33.62 72 -53 72 C-53 70.68 -53 69.36 -53 68 C-52.36191406 67.87882812 -51.72382812 67.75765625 -51.06640625 67.6328125 C-50.24011719 67.46523438 -49.41382813 67.29765625 -48.5625 67.125 C-47.73878906 66.96257812 -46.91507813 66.80015625 -46.06640625 66.6328125 C-45.04353516 66.31957031 -45.04353516 66.31957031 -44 66 C-42.69239107 63.38478215 -42.88002452 61.46886599 -42.88647461 58.54052734 C-42.88658791 56.82897964 -42.88658791 56.82897964 -42.88670349 55.08285522 C-42.89186478 53.84637238 -42.89702606 52.60988953 -42.90234375 51.3359375 C-42.9037587 50.07359283 -42.90517365 48.81124817 -42.90663147 47.51065063 C-42.91128922 44.15361701 -42.92027592 40.796651 -42.93133545 37.43963623 C-42.9415623 34.01445094 -42.94613182 30.58925866 -42.95117188 27.1640625 C-42.96221762 20.44268957 -42.97896806 13.72134869 -43 7 C-46.3 6.67 -49.6 6.34 -53 6 C-53 4.35 -53 2.7 -53 1 C-46.09490109 0.85701064 -39.18978923 0.7146598 -32.28466797 0.57275391 C-29.93538108 0.52439864 -27.5860972 0.47589694 -25.23681641 0.42724609 C-21.86101041 0.35736249 -18.48519395 0.28800466 -15.109375 0.21875 C-14.05820496 0.19687622 -13.00703491 0.17500244 -11.92401123 0.15246582 C-10.94329651 0.13244507 -9.96258179 0.11242432 -8.95214844 0.09179688 C-7.6597525 0.06514954 -7.6597525 0.06514954 -6.34124756 0.03796387 C-4.22773833 0.00369283 -2.11378707 0 0 0 Z " fill="#ECECEC" transform="translate(1437,406)"/>
<path d="M0 0 C0.33 7.26 0.66 14.52 1 22 C-0.32 22 -1.64 22 -3 22 C-3.64633275 20.22934889 -4.2920483 18.45847247 -4.9375 16.6875 C-5.47697266 15.20830078 -5.47697266 15.20830078 -6.02734375 13.69921875 C-6.70885965 11.8079437 -7.3642811 9.90715671 -8 8 C-16.25 7.34 -24.5 6.68 -33 6 C-33 14.58 -33 23.16 -33 32 C-25.08 32 -17.16 32 -9 32 C-9 33.98 -9 35.96 -9 38 C-16.92 38 -24.84 38 -33 38 C-32.855625 41.898125 -32.71125 45.79625 -32.5625 49.8125 C-32.51939697 51.03815674 -32.47629395 52.26381348 -32.43188477 53.52661133 C-32.3747229 54.97716919 -32.3747229 54.97716919 -32.31640625 56.45703125 C-32.27974854 57.44678955 -32.24309082 58.43654785 -32.20532227 59.45629883 C-32.09209669 62.1218351 -32.09209669 62.1218351 -31 65 C-27.25842335 66.87078832 -22.74207312 66.18475528 -18.625 66.1875 C-17.6659375 66.19974609 -16.706875 66.21199219 -15.71875 66.22460938 C-14.79320312 66.22654297 -13.86765625 66.22847656 -12.9140625 66.23046875 C-12.0679541 66.23457764 -11.2218457 66.23868652 -10.35009766 66.24291992 C-7.74241219 65.97337421 -6.18377032 65.44330329 -4 64 C-2.74973882 61.60844535 -1.71945037 59.37281855 -0.75 56.875 C-0.481875 56.21628906 -0.21375 55.55757813 0.0625 54.87890625 C0.7204713 53.25747697 1.36187627 51.62934259 2 50 C3.32 50 4.64 50 6 50 C5.85758352 52.35441716 5.71115192 54.70847484 5.5625 57.0625 C5.48128906 58.37347656 5.40007812 59.68445313 5.31640625 61.03515625 C5.02356706 64.70468439 4.52059949 68.35580356 4 72 C-14.81 72 -33.62 72 -53 72 C-53 70.68 -53 69.36 -53 68 C-52.36191406 67.87882812 -51.72382812 67.75765625 -51.06640625 67.6328125 C-50.24011719 67.46523438 -49.41382813 67.29765625 -48.5625 67.125 C-47.73878906 66.96257812 -46.91507813 66.80015625 -46.06640625 66.6328125 C-45.04353516 66.31957031 -45.04353516 66.31957031 -44 66 C-42.69239107 63.38478215 -42.88002452 61.46886599 -42.88647461 58.54052734 C-42.88658791 56.82897964 -42.88658791 56.82897964 -42.88670349 55.08285522 C-42.89186478 53.84637238 -42.89702606 52.60988953 -42.90234375 51.3359375 C-42.9037587 50.07359283 -42.90517365 48.81124817 -42.90663147 47.51065063 C-42.91128922 44.15361701 -42.92027592 40.796651 -42.93133545 37.43963623 C-42.9415623 34.01445094 -42.94613182 30.58925866 -42.95117188 27.1640625 C-42.96221762 20.44268957 -42.97896806 13.72134869 -43 7 C-46.3 6.67 -49.6 6.34 -53 6 C-53 4.35 -53 2.7 -53 1 C-46.09490109 0.85701064 -39.18978923 0.7146598 -32.28466797 0.57275391 C-29.93538108 0.52439864 -27.5860972 0.47589694 -25.23681641 0.42724609 C-21.86101041 0.35736249 -18.48519395 0.28800466 -15.109375 0.21875 C-14.05820496 0.19687622 -13.00703491 0.17500244 -11.92401123 0.15246582 C-10.94329651 0.13244507 -9.96258179 0.11242432 -8.95214844 0.09179688 C-7.6597525 0.06514954 -7.6597525 0.06514954 -6.34124756 0.03796387 C-4.22773833 0.00369283 -2.11378707 0 0 0 Z " fill="#ECECEC" transform="translate(1041,406)"/>
<path d="M0 0 C4.80139866 -0.07484195 9.60244862 -0.12892454 14.40429688 -0.16479492 C16.03358891 -0.17976766 17.66284145 -0.20015321 19.29199219 -0.22631836 C41.64146446 -0.57595734 41.64146446 -0.57595734 51 7 C55.50044723 11.98698206 56.36885575 15.8158601 56.2734375 22.37109375 C55.68469858 28.03139796 53.05274069 32.27961126 49.0625 36.25 C41.7348145 42.01759762 32.07651067 43.61535666 23 43 C23 41.68 23 40.36 23 39 C23.86882812 38.75765625 24.73765625 38.5153125 25.6328125 38.265625 C36.19340853 35.48006989 36.19340853 35.48006989 43.875 28.25 C45.75419489 22.82121476 45.908984 18.92704609 43.4375 13.6875 C38.61036837 8.36527795 33.6141003 7.86148764 26.7421875 6.921875 C25.48003418 6.7475293 24.21788086 6.57318359 22.91748047 6.39355469 C21.95471191 6.26368164 20.99194336 6.13380859 20 6 C20.10744417 13.39742861 20.22006584 20.79475913 20.33933926 28.19200706 C20.39455623 31.62666983 20.44797423 35.06134113 20.49731445 38.49609375 C20.55408707 42.44279889 20.61862398 46.38935842 20.68359375 50.3359375 C20.70030624 51.57242035 20.71701874 52.8089032 20.73423767 54.08285522 C20.75418289 55.22388702 20.77412811 56.36491882 20.79467773 57.54052734 C20.81799416 59.05276382 20.81799416 59.05276382 20.84178162 60.59555054 C20.8448655 63.01266444 20.8448655 63.01266444 22 65 C24.33744294 65.46806645 26.69739079 65.82669794 29.0625 66.125 C30.35285156 66.29257812 31.64320312 66.46015625 32.97265625 66.6328125 C34.47119141 66.81457031 34.47119141 66.81457031 36 67 C36 68.32 36 69.64 36 71 C24.12 71 12.24 71 0 71 C0 69.68 0 68.36 0 67 C0.63808594 66.87882812 1.27617188 66.75765625 1.93359375 66.6328125 C2.75988281 66.46523438 3.58617187 66.29765625 4.4375 66.125 C5.26121094 65.96257812 6.08492187 65.80015625 6.93359375 65.6328125 C7.95646484 65.31957031 7.95646484 65.31957031 9 65 C10.30760893 62.38478215 10.11997548 60.46886599 10.11352539 57.54052734 C10.11341209 55.82897964 10.11341209 55.82897964 10.11329651 54.08285522 C10.10813522 52.84637238 10.10297394 51.60988953 10.09765625 50.3359375 C10.0962413 49.07359283 10.09482635 47.81124817 10.09336853 46.51065063 C10.08871078 43.15361701 10.07972408 39.796651 10.06866455 36.43963623 C10.0584377 33.01445094 10.05386818 29.58925866 10.04882812 26.1640625 C10.03778238 19.44268957 10.02103194 12.72134869 10 6 C6.7 5.67 3.4 5.34 0 5 C0 3.35 0 1.7 0 0 Z " fill="#EDEDED" transform="translate(1170,407)"/>
<path d="M0 0 C16.17 0 32.34 0 49 0 C49 5.65233969 47.39045732 8.0934257 44.34375 12.546875 C43.8528186 13.28419861 43.36188721 14.02152222 42.8560791 14.78118896 C41.7970021 16.36922407 40.73280763 17.95385575 39.6640625 19.53540039 C37.99851447 22.00220018 36.3486466 24.47878848 34.703125 26.95898438 C31.31386495 32.06389657 27.90830228 37.15778819 24.5 42.25 C22.19656399 45.69180629 19.89470519 49.13465987 17.59375 52.578125 C16.81565979 53.73903656 16.81565979 53.73903656 16.02185059 54.92340088 C13.58807552 58.56577227 11.20706859 62.21350967 9 66 C13.39658178 65.91902093 17.7917871 65.80618201 22.1875 65.6875 C23.43337891 65.66494141 24.67925781 65.64238281 25.96289062 65.61914062 C27.16494141 65.58369141 28.36699219 65.54824219 29.60546875 65.51171875 C31.26292114 65.47244263 31.26292114 65.47244263 32.95385742 65.43237305 C36.33819477 64.95199624 38.25614084 64.00522235 41 62 C42.36121364 60.01726321 42.36121364 60.01726321 43.1875 57.75 C43.50589844 56.96238281 43.82429688 56.17476563 44.15234375 55.36328125 C45.26236804 52.26851307 46.18664156 49.18565388 47 46 C47.99 46 48.98 46 50 46 C50.05528373 48.10385294 50.09335577 50.20815875 50.125 52.3125 C50.14820313 53.48425781 50.17140625 54.65601563 50.1953125 55.86328125 C49.95486449 60.95597006 48.91202271 65.98387508 48 71 C30.84 71 13.68 71 -4 71 C-2.87591849 64.25551092 -2.87591849 64.25551092 -0.73876953 61.3918457 C-0.26825165 60.74644333 0.20226624 60.10104095 0.68704224 59.43608093 C1.45683914 58.41004509 1.45683914 58.41004509 2.2421875 57.36328125 C3.34338909 55.85033641 4.44192151 54.33544601 5.53808594 52.81884766 C6.10926147 52.03060608 6.68043701 51.2423645 7.2689209 50.43023682 C10.13417568 46.40774723 12.85516393 42.2926974 15.5703125 38.16796875 C16.11024841 37.34821564 16.65018433 36.52846252 17.20648193 35.68386841 C18.29769083 34.02399018 19.3877189 32.36333506 20.4765625 30.7019043 C22.15496634 28.14179157 23.83892876 25.58539585 25.5234375 23.02929688 C26.60188623 21.38823353 27.6800235 19.74696546 28.7578125 18.10546875 C29.25668976 17.3482402 29.75556702 16.59101166 30.26956177 15.81083679 C30.7311972 15.1052211 31.19283264 14.39960541 31.66845703 13.67260742 C32.07194366 13.05769943 32.4754303 12.44279144 32.8911438 11.80924988 C34.04808513 9.92154256 35.03823152 7.99323107 36 6 C29.49570281 5.89278631 22.99894673 5.95707054 16.5 6.25 C15.3553125 6.29640625 14.210625 6.3428125 13.03125 6.390625 C9.34423265 7.13182952 8.22278732 7.99623335 6 11 C4.67502081 14.0137392 4.67502081 14.0137392 3.75 17.25 C3.41484375 18.32765625 3.0796875 19.4053125 2.734375 20.515625 C2.49203125 21.33546875 2.2496875 22.1553125 2 23 C0.68 23 -0.64 23 -2 23 C-1.86149295 19.54133208 -1.71295273 16.08316725 -1.5625 12.625 C-1.50352539 11.14773438 -1.50352539 11.14773438 -1.44335938 9.640625 C-1.40146484 8.69960938 -1.35957031 7.75859375 -1.31640625 6.7890625 C-1.27974854 5.91975098 -1.24309082 5.05043945 -1.20532227 4.15478516 C-1 2 -1 2 0 0 Z " fill="#EDEDED" transform="translate(1329,407)"/>
<path d="M0 0 C16.17 0 32.34 0 49 0 C49 5.65233969 47.39045732 8.0934257 44.34375 12.546875 C43.8528186 13.28419861 43.36188721 14.02152222 42.8560791 14.78118896 C41.7970021 16.36922407 40.73280763 17.95385575 39.6640625 19.53540039 C37.99851447 22.00220018 36.3486466 24.47878848 34.703125 26.95898438 C31.31386495 32.06389657 27.90830228 37.15778819 24.5 42.25 C22.19656399 45.69180629 19.89470519 49.13465987 17.59375 52.578125 C16.81565979 53.73903656 16.81565979 53.73903656 16.02185059 54.92340088 C13.58807552 58.56577227 11.20706859 62.21350967 9 66 C13.39658178 65.91902093 17.7917871 65.80618201 22.1875 65.6875 C23.43337891 65.66494141 24.67925781 65.64238281 25.96289062 65.61914062 C27.16494141 65.58369141 28.36699219 65.54824219 29.60546875 65.51171875 C31.26292114 65.47244263 31.26292114 65.47244263 32.95385742 65.43237305 C36.33819477 64.95199624 38.25614084 64.00522235 41 62 C42.36121364 60.01726321 42.36121364 60.01726321 43.1875 57.75 C43.50589844 56.96238281 43.82429688 56.17476563 44.15234375 55.36328125 C45.26236804 52.26851307 46.18664156 49.18565388 47 46 C47.99 46 48.98 46 50 46 C50.05528373 48.10385294 50.09335577 50.20815875 50.125 52.3125 C50.14820313 53.48425781 50.17140625 54.65601563 50.1953125 55.86328125 C49.95486449 60.95597006 48.91202271 65.98387508 48 71 C30.84 71 13.68 71 -4 71 C-2.87591849 64.25551092 -2.87591849 64.25551092 -0.73876953 61.3918457 C-0.26825165 60.74644333 0.20226624 60.10104095 0.68704224 59.43608093 C1.45683914 58.41004509 1.45683914 58.41004509 2.2421875 57.36328125 C3.34338909 55.85033641 4.44192151 54.33544601 5.53808594 52.81884766 C6.10926147 52.03060608 6.68043701 51.2423645 7.2689209 50.43023682 C10.13417568 46.40774723 12.85516393 42.2926974 15.5703125 38.16796875 C16.11024841 37.34821564 16.65018433 36.52846252 17.20648193 35.68386841 C18.29769083 34.02399018 19.3877189 32.36333506 20.4765625 30.7019043 C22.15496634 28.14179157 23.83892876 25.58539585 25.5234375 23.02929688 C26.60188623 21.38823353 27.6800235 19.74696546 28.7578125 18.10546875 C29.25668976 17.3482402 29.75556702 16.59101166 30.26956177 15.81083679 C30.7311972 15.1052211 31.19283264 14.39960541 31.66845703 13.67260742 C32.07194366 13.05769943 32.4754303 12.44279144 32.8911438 11.80924988 C34.04808513 9.92154256 35.03823152 7.99323107 36 6 C29.49570281 5.89278631 22.99894673 5.95707054 16.5 6.25 C15.3553125 6.29640625 14.210625 6.3428125 13.03125 6.390625 C9.34423265 7.13182952 8.22278732 7.99623335 6 11 C4.67502081 14.0137392 4.67502081 14.0137392 3.75 17.25 C3.41484375 18.32765625 3.0796875 19.4053125 2.734375 20.515625 C2.49203125 21.33546875 2.2496875 22.1553125 2 23 C0.68 23 -0.64 23 -2 23 C-1.86149295 19.54133208 -1.71295273 16.08316725 -1.5625 12.625 C-1.50352539 11.14773438 -1.50352539 11.14773438 -1.44335938 9.640625 C-1.40146484 8.69960938 -1.35957031 7.75859375 -1.31640625 6.7890625 C-1.27974854 5.91975098 -1.24309082 5.05043945 -1.20532227 4.15478516 C-1 2 -1 2 0 0 Z " fill="#EDEDED" transform="translate(1268,407)"/>
<path d="M0 0 C1.6875 0.97265625 1.6875 0.97265625 2.6875 1.97265625 C2.77381874 3.31533038 2.79456473 4.66239947 2.78515625 6.0078125 C2.78193359 6.81669922 2.77871094 7.62558594 2.77539062 8.45898438 C2.76282227 9.73418945 2.76282227 9.73418945 2.75 11.03515625 C2.74548828 11.88916016 2.74097656 12.74316406 2.73632812 13.62304688 C2.72450373 15.73961288 2.70656769 17.8561431 2.6875 19.97265625 C1.3675 19.97265625 0.0475 19.97265625 -1.3125 19.97265625 C-1.65861328 18.97685547 -1.65861328 18.97685547 -2.01171875 17.9609375 C-4.26206304 11.8681081 -6.23608245 7.01086502 -12.3125 3.97265625 C-17.90660458 3.39424071 -22.68364999 2.97028701 -27.5625 5.97265625 C-29.96736302 10.09527857 -29.83899142 12.23423346 -29.3125 16.97265625 C-28.05256002 20.2853765 -26.81366896 21.6052561 -23.6875 23.22265625 C-22.49640625 23.85494141 -22.49640625 23.85494141 -21.28125 24.5 C-19.00131506 25.63096773 -16.71487372 26.71965916 -14.40625 27.7890625 C0.27392393 34.68136392 0.27392393 34.68136392 4.6875 41.97265625 C6.85150561 48.46467308 5.97851467 53.85187748 3.00390625 59.86328125 C-0.71802467 65.82720616 -5.78126281 68.78648931 -12.5078125 70.50390625 C-21.42718571 71.99460929 -29.92202618 71.43283028 -38.3125 67.97265625 C-41.32925502 64.95590123 -40.29008386 56.05563579 -40.375 51.953125 C-40.375 49.62534607 -40.35883965 47.29993658 -40.3125 44.97265625 C-38.9925 44.97265625 -37.6725 44.97265625 -36.3125 44.97265625 C-35.94898438 46.0090625 -35.58546875 47.04546875 -35.2109375 48.11328125 C-34.70416042 49.48345632 -34.1962897 50.85322725 -33.6875 52.22265625 C-33.45160156 52.90457031 -33.21570313 53.58648437 -32.97265625 54.2890625 C-31.11670928 59.19066603 -29.19122472 61.58750194 -24.3125 63.97265625 C-19.1132504 64.8933567 -13.30698101 65.08992033 -8.6875 62.22265625 C-4.97898837 58.70932944 -4.40923532 57.19152132 -4 52.03515625 C-3.90148755 48.22348206 -4.96041524 45.97262064 -7.3125 42.97265625 C-9.73072719 41.36259402 -12.29795455 40.1756979 -14.9375 38.97265625 C-16.38467822 38.27982191 -17.83129701 37.58581781 -19.27734375 36.890625 C-19.97327637 36.5611084 -20.66920898 36.2315918 -21.38623047 35.89208984 C-28.24338326 32.6190813 -34.66028227 29.51931522 -38.625 22.72265625 C-40.2415917 16.25628945 -39.93756751 10.63683955 -36.65625 4.765625 C-28.49736838 -6.12078972 -11.2149097 -5.28540508 0 0 Z " fill="#EEEEEE" transform="translate(553.3125,409.02734375)"/>
<path d="M0 0 C19.14 0.33 38.28 0.66 58 1 C58.71386884 6.71095068 59.11264052 11.38426177 59.0625 17 C59.05798828 17.67933594 59.05347656 18.35867188 59.04882812 19.05859375 C59.0372283 20.70576874 59.01930199 22.35289726 59 24 C58.01 24 57.02 24 56 24 C55.51080078 22.64455078 55.51080078 22.64455078 55.01171875 21.26171875 C54.57472656 20.08222656 54.13773438 18.90273438 53.6875 17.6875 C53.25824219 16.51574219 52.82898438 15.34398437 52.38671875 14.13671875 C50.82092563 10.50658639 50.82092563 10.50658639 48 8 C44.5776116 7.41781668 44.5776116 7.41781668 40.8125 7.3125 C39.54019531 7.24675781 38.26789062 7.18101562 36.95703125 7.11328125 C35.98121094 7.07589844 35.00539063 7.03851563 34 7 C34.10744417 14.39742861 34.22006584 21.79475913 34.33933926 29.19200706 C34.39455623 32.62666983 34.44797423 36.06134113 34.49731445 39.49609375 C34.55408707 43.44279889 34.61862398 47.38935842 34.68359375 51.3359375 C34.70030624 52.57242035 34.71701874 53.8089032 34.73423767 55.08285522 C34.7641555 56.79440292 34.7641555 56.79440292 34.79467773 58.54052734 C34.81799416 60.05276382 34.81799416 60.05276382 34.84178162 61.59555054 C34.8448655 64.01266444 34.8448655 64.01266444 36 66 C38.80980673 66.69227032 38.80980673 66.69227032 42.0625 67.125 C43.16722656 67.29257812 44.27195312 67.46015625 45.41015625 67.6328125 C46.26480469 67.75398438 47.11945312 67.87515625 48 68 C48 69.32 48 70.64 48 72 C35.79 72 23.58 72 11 72 C11 70.68 11 69.36 11 68 C17.435 67.01 17.435 67.01 24 66 C24.33 46.53 24.66 27.06 25 7 C20.05 7.33 15.1 7.66 10 8 C6.28300996 13.52734336 6.28300996 13.52734336 4.25 19.375 C4.00765625 20.24898438 3.7653125 21.12296875 3.515625 22.0234375 C3.34546875 22.67570312 3.1753125 23.32796875 3 24 C1.68 24 0.36 24 -1 24 C-1.14593679 15.9086159 -0.62414871 8.11393318 0 0 Z " fill="#EDEDED" transform="translate(924,406)"/>
<path d="M0 0 C19.14 0.33 38.28 0.66 58 1 C58.71386884 6.71095068 59.11264052 11.38426177 59.0625 17 C59.05798828 17.67933594 59.05347656 18.35867188 59.04882812 19.05859375 C59.0372283 20.70576874 59.01930199 22.35289726 59 24 C58.01 24 57.02 24 56 24 C55.51080078 22.64455078 55.51080078 22.64455078 55.01171875 21.26171875 C54.57472656 20.08222656 54.13773438 18.90273438 53.6875 17.6875 C53.25824219 16.51574219 52.82898438 15.34398437 52.38671875 14.13671875 C50.82092563 10.50658639 50.82092563 10.50658639 48 8 C44.5776116 7.41781668 44.5776116 7.41781668 40.8125 7.3125 C39.54019531 7.24675781 38.26789062 7.18101562 36.95703125 7.11328125 C35.98121094 7.07589844 35.00539063 7.03851563 34 7 C34.10744417 14.39742861 34.22006584 21.79475913 34.33933926 29.19200706 C34.39455623 32.62666983 34.44797423 36.06134113 34.49731445 39.49609375 C34.55408707 43.44279889 34.61862398 47.38935842 34.68359375 51.3359375 C34.70030624 52.57242035 34.71701874 53.8089032 34.73423767 55.08285522 C34.7641555 56.79440292 34.7641555 56.79440292 34.79467773 58.54052734 C34.81799416 60.05276382 34.81799416 60.05276382 34.84178162 61.59555054 C34.8448655 64.01266444 34.8448655 64.01266444 36 66 C38.80980673 66.69227032 38.80980673 66.69227032 42.0625 67.125 C43.16722656 67.29257812 44.27195312 67.46015625 45.41015625 67.6328125 C46.26480469 67.75398438 47.11945312 67.87515625 48 68 C48 69.32 48 70.64 48 72 C35.79 72 23.58 72 11 72 C11 70.68 11 69.36 11 68 C17.435 67.01 17.435 67.01 24 66 C24.33 46.53 24.66 27.06 25 7 C20.05 7.33 15.1 7.66 10 8 C6.28300996 13.52734336 6.28300996 13.52734336 4.25 19.375 C4.00765625 20.24898438 3.7653125 21.12296875 3.515625 22.0234375 C3.34546875 22.67570312 3.1753125 23.32796875 3 24 C1.68 24 0.36 24 -1 24 C-1.14593679 15.9086159 -0.62414871 8.11393318 0 0 Z " fill="#EDEDED" transform="translate(567,406)"/>
<path d="M0 0 C9.9 0 19.8 0 30 0 C30 1.65 30 3.3 30 5 C27.94921875 5.22786458 25.8984375 5.45572917 23.84765625 5.68359375 C21.98859771 5.81886614 21.98859771 5.81886614 21 7 C20.90623947 8.81055025 20.8825589 10.62477201 20.88647461 12.43774414 C20.88658791 14.17943626 20.88658791 14.17943626 20.88670349 15.95631409 C20.89186478 17.219832 20.89702606 18.48334991 20.90234375 19.78515625 C20.9037587 21.07111191 20.90517365 22.35706757 20.90663147 23.68199158 C20.91045582 27.10643443 20.92028538 30.53083509 20.93133545 33.95526123 C20.94155136 37.44738189 20.94612947 40.93950934 20.95117188 44.43164062 C20.96190773 51.28777778 20.97898316 58.14388687 21 65 C25.455 65.99 25.455 65.99 30 67 C30 68.32 30 69.64 30 71 C20.1 71 10.2 71 0 71 C0 69.68 0 68.36 0 67 C0.63808594 66.87882812 1.27617188 66.75765625 1.93359375 66.6328125 C2.75988281 66.46523438 3.58617187 66.29765625 4.4375 66.125 C5.26121094 65.96257812 6.08492187 65.80015625 6.93359375 65.6328125 C7.95646484 65.31957031 7.95646484 65.31957031 9 65 C10.30760893 62.38478215 10.11997548 60.46886599 10.11352539 57.54052734 C10.11341209 55.82897964 10.11341209 55.82897964 10.11329651 54.08285522 C10.10813522 52.84637238 10.10297394 51.60988953 10.09765625 50.3359375 C10.0962413 49.07359283 10.09482635 47.81124817 10.09336853 46.51065063 C10.08871078 43.15361701 10.07972408 39.796651 10.06866455 36.43963623 C10.0584377 33.01445094 10.05386818 29.58925866 10.04882812 26.1640625 C10.03778238 19.44268957 10.02103194 12.72134869 10 6 C6.7 5.67 3.4 5.34 0 5 C0 3.35 0 1.7 0 0 Z " fill="#EDEDED" transform="translate(1515,407)"/>
<path d="M0 0 C9.9 0 19.8 0 30 0 C30 1.65 30 3.3 30 5 C27.94921875 5.22786458 25.8984375 5.45572917 23.84765625 5.68359375 C21.98859771 5.81886614 21.98859771 5.81886614 21 7 C20.90623947 8.81055025 20.8825589 10.62477201 20.88647461 12.43774414 C20.88658791 14.17943626 20.88658791 14.17943626 20.88670349 15.95631409 C20.89186478 17.219832 20.89702606 18.48334991 20.90234375 19.78515625 C20.9037587 21.07111191 20.90517365 22.35706757 20.90663147 23.68199158 C20.91045582 27.10643443 20.92028538 30.53083509 20.93133545 33.95526123 C20.94155136 37.44738189 20.94612947 40.93950934 20.95117188 44.43164062 C20.96190773 51.28777778 20.97898316 58.14388687 21 65 C25.455 65.99 25.455 65.99 30 67 C30 68.32 30 69.64 30 71 C20.1 71 10.2 71 0 71 C0 69.68 0 68.36 0 67 C0.63808594 66.87882812 1.27617188 66.75765625 1.93359375 66.6328125 C2.75988281 66.46523438 3.58617187 66.29765625 4.4375 66.125 C5.26121094 65.96257812 6.08492187 65.80015625 6.93359375 65.6328125 C7.95646484 65.31957031 7.95646484 65.31957031 9 65 C10.30760893 62.38478215 10.11997548 60.46886599 10.11352539 57.54052734 C10.11341209 55.82897964 10.11341209 55.82897964 10.11329651 54.08285522 C10.10813522 52.84637238 10.10297394 51.60988953 10.09765625 50.3359375 C10.0962413 49.07359283 10.09482635 47.81124817 10.09336853 46.51065063 C10.08871078 43.15361701 10.07972408 39.796651 10.06866455 36.43963623 C10.0584377 33.01445094 10.05386818 29.58925866 10.04882812 26.1640625 C10.03778238 19.44268957 10.02103194 12.72134869 10 6 C6.7 5.67 3.4 5.34 0 5 C0 3.35 0 1.7 0 0 Z " fill="#EDEDED" transform="translate(1229,407)"/>
<path d="M0 0 C9.9 0 19.8 0 30 0 C30 1.65 30 3.3 30 5 C27.94921875 5.22786458 25.8984375 5.45572917 23.84765625 5.68359375 C21.98859771 5.81886614 21.98859771 5.81886614 21 7 C20.90623947 8.81055025 20.8825589 10.62477201 20.88647461 12.43774414 C20.88658791 14.17943626 20.88658791 14.17943626 20.88670349 15.95631409 C20.89186478 17.219832 20.89702606 18.48334991 20.90234375 19.78515625 C20.9037587 21.07111191 20.90517365 22.35706757 20.90663147 23.68199158 C20.91045582 27.10643443 20.92028538 30.53083509 20.93133545 33.95526123 C20.94155136 37.44738189 20.94612947 40.93950934 20.95117188 44.43164062 C20.96190773 51.28777778 20.97898316 58.14388687 21 65 C25.455 65.99 25.455 65.99 30 67 C30 68.32 30 69.64 30 71 C20.1 71 10.2 71 0 71 C0 69.68 0 68.36 0 67 C0.63808594 66.87882812 1.27617187 66.75765625 1.93359375 66.6328125 C2.75988281 66.46523438 3.58617187 66.29765625 4.4375 66.125 C5.26121094 65.96257812 6.08492188 65.80015625 6.93359375 65.6328125 C7.95646484 65.31957031 7.95646484 65.31957031 9 65 C10.30760893 62.38478215 10.11997548 60.46886599 10.11352539 57.54052734 C10.11341209 55.82897964 10.11341209 55.82897964 10.11329651 54.08285522 C10.10813522 52.84637238 10.10297394 51.60988953 10.09765625 50.3359375 C10.0962413 49.07359283 10.09482635 47.81124817 10.09336853 46.51065063 C10.08871078 43.15361701 10.07972408 39.796651 10.06866455 36.43963623 C10.0584377 33.01445094 10.05386818 29.58925866 10.04882812 26.1640625 C10.03778238 19.44268957 10.02103194 12.72134869 10 6 C6.7 5.67 3.4 5.34 0 5 C0 3.35 0 1.7 0 0 Z " fill="#EDEDED" transform="translate(476,407)"/>
<path d="M0 0 C15.90909091 0 15.90909091 0 23.625 6.0625 C25.78406922 10.67505697 25.84277533 15.00930433 25 20 C22.64729623 24.97571818 18.90997692 26.54501154 14 29 C9.38 29 4.76 29 0 29 C0 19.43 0 9.86 0 0 Z " fill="#1b1715" transform="translate(1467,413)"/>
<path d="M0 0 C15.90909091 0 15.90909091 0 23.625 6.0625 C25.78406922 10.67505697 25.84277533 15.00930433 25 20 C22.64729623 24.97571818 18.90997692 26.54501154 14 29 C9.38 29 4.76 29 0 29 C0 19.43 0 9.86 0 0 Z " fill="#1b1715" transform="translate(724,413)"/>
<path d="M0 0 C15.90909091 0 15.90909091 0 23.625 6.0625 C25.78406922 10.67505697 25.84277533 15.00930433 25 20 C22.64729623 24.97571818 18.90997692 26.54501154 14 29 C9.38 29 4.76 29 0 29 C0 19.43 0 9.86 0 0 Z " fill="#1b1715" transform="translate(428,413)"/>
<path d="M0 0 C3.51720236 1.17240079 4.06406565 2.12197214 6.1875 5.0625 C9.74529866 9.80623154 13.71400336 13.91438762 18 18 C17 21 17 21 14.625 22.1875 C9.69670236 23.29211844 5.01674811 23.77885587 0 23 C-3.125 20.5625 -3.125 20.5625 -5 18 C-5.33 17.67 -5.66 17.34 -6 17 C-6.65539953 12.66938538 -6.97668549 8.6173684 -4.66015625 4.78125 C-3.17924373 3.08081397 -1.67634298 1.50671304 0 0 Z " fill="#1b1715" transform="translate(1091,448)"/>
<path d="M0 0 C3.45619323 3.45619323 4.49272714 8.33578184 6.125 12.875 C6.68380859 14.38513672 6.68380859 14.38513672 7.25390625 15.92578125 C7.60582031 16.89644531 7.95773437 17.86710937 8.3203125 18.8671875 C8.64273926 19.75519043 8.96516602 20.64319336 9.29736328 21.55810547 C10 24 10 24 10 28 C3.4 28 -3.2 28 -10 28 C-9.2581635 23.54898097 -8.607803 20.61023253 -6.93359375 16.6015625 C-6.53076172 15.62832031 -6.12792969 14.65507812 -5.71289062 13.65234375 C-5.29201172 12.65332031 -4.87113281 11.65429688 -4.4375 10.625 C-4.01275391 9.60277344 -3.58800781 8.58054687 -3.15039062 7.52734375 C-2.10587881 5.01582095 -1.05560951 2.50687381 0 0 Z " fill="#1b1715" transform="translate(1581,419)"/>
<path d="M0 0 C3.45619323 3.45619323 4.49272714 8.33578184 6.125 12.875 C6.68380859 14.38513672 6.68380859 14.38513672 7.25390625 15.92578125 C7.60582031 16.89644531 7.95773437 17.86710937 8.3203125 18.8671875 C8.64273926 19.75519043 8.96516602 20.64319336 9.29736328 21.55810547 C10 24 10 24 10 28 C3.4 28 -3.2 28 -10 28 C-9.2581635 23.54898097 -8.607803 20.61023253 -6.93359375 16.6015625 C-6.53076172 15.62832031 -6.12792969 14.65507812 -5.71289062 13.65234375 C-5.29201172 12.65332031 -4.87113281 11.65429688 -4.4375 10.625 C-4.01275391 9.60277344 -3.58800781 8.58054687 -3.15039062 7.52734375 C-2.10587881 5.01582095 -1.05560951 2.50687381 0 0 Z " fill="#1b1715" transform="translate(804,419)"/>
<path d="M0 0 C2.06309088 1.53433532 2.86736586 2.47871699 3.50390625 4.98046875 C3.65407208 10.63671498 2.43442338 13.92477061 -1.19921875 18.26953125 C-3.89398991 20.85908358 -6.63701298 22.38576623 -10 24 C-13.96738461 18.21423078 -13.91777114 11.8126858 -13 5 C-9.59669271 -0.6367277 -6.08864859 -0.78563208 0 0 Z " fill="#1b1715" transform="translate(1107,413)"/>
</svg>
